<svg xmlns="http://www.w3.org/2000/svg" viewBox="0 0 64 64" role="img" aria-label="Badge layouts">
  <defs>
    <linearGradient id="g" x1="0" x2="1" y1="0" y2="1">
      <stop offset="0" stop-color="#22d3ee"/>
      <stop offset="1" stop-color="#8b5cf6"/>
    </linearGradient>
  </defs>
  <rect width="64" height="64" rx="14" fill="#08111f"/>
  <path fill="url(#g)" d="M14 17a5 5 0 0 1 5-5h26a5 5 0 0 1 5 5v10a5 5 0 0 1-5 5H19a5 5 0 0 1-5-5V17Zm0 20a5 5 0 0 1 5-5h16a5 5 0 0 1 5 5v10a5 5 0 0 1-5 5H19a5 5 0 0 1-5-5V37Z"/>
  <circle cx="43" cy="42" r="10" fill="#f59e0b"/>
</svg>
